<?xml version="1.0" encoding="UTF-8"?>
<svg xmlns="http://www.w3.org/2000/svg" viewBox="0 0 512 512" width="512" height="512"><g id="Two_Tone" data-name="Two Tone"><path d="M426.65,187.18A183,183,0,0,1,440,256c0,101.46-82.54,184-184,184S72,357.46,72,256,154.54,72,256,72a183,183,0,0,1,68.82,13.35l36.3-36.3A231.66,231.66,0,1,0,462.95,150.88Z" style="fill:#2096f3"/><path d="M424.971,87.029a24,24,0,0,0-33.942,0L232,246.059V192a24,24,0,0,0-48,0V304a24,24,0,0,0,24,24H320a24,24,0,0,0,0-48H265.941l159.03-159.029A24,24,0,0,0,424.971,87.029Z" style="fill:#ffd54f"/><path d="M256,496A240,240,0,0,1,86.293,86.293,240.4,240.4,0,0,1,364.751,41.921a8,8,0,0,1,2.026,12.786l-36.3,36.3a8,8,0,0,1-8.66,1.759A174.585,174.585,0,0,0,256,80C158.953,80,80,158.953,80,256s78.953,176,176,176,176-78.953,176-176a174.585,174.585,0,0,0-12.766-65.818,8.006,8.006,0,0,1,1.759-8.66l36.3-36.3a8,8,0,0,1,12.786,2.026A240.107,240.107,0,0,1,256,496Zm0-464A224,224,0,0,0,97.607,414.393,224,224,0,0,0,480,256a221.743,221.743,0,0,0-19.383-91.473L436,189.146A190.567,190.567,0,0,1,448,256c0,105.869-86.131,192-192,192S64,361.869,64,256,150.131,64,256,64a190.567,190.567,0,0,1,66.854,12l24.619-24.62A221.743,221.743,0,0,0,256,32Z" style="fill:#0d47a0"/><path d="M320,336H208a32.036,32.036,0,0,1-32-32V192a32,32,0,0,1,64,0v34.745L385.372,81.372a32.039,32.039,0,0,1,45.256,0h0a32.037,32.037,0,0,1,0,45.254L285.255,272H320a32,32,0,0,1,0,64ZM208,176a16.019,16.019,0,0,0-16,16V304a16.019,16.019,0,0,0,16,16H320a16,16,0,0,0,0-32H265.941a8,8,0,0,1-5.657-13.657l159.029-159.03a16.017,16.017,0,0,0,0-22.627h0a16.015,16.015,0,0,0-22.626,0L237.657,251.716A8,8,0,0,1,224,246.059V192A16.019,16.019,0,0,0,208,176Z" style="fill:#0d47a0"/></g></svg>
